<svg xmlns="http://www.w3.org/2000/svg" viewBox="0 0 41.7 49.05"><defs><style>.cls-1{fill:#020202;stroke:#000;stroke-miterlimit:10;}</style></defs><title>Recurso 1</title><g id="Capa_2" data-name="Capa 2"><g id="Capa_5" data-name="Capa 5"><path class="cls-1" d="M14.71.5h8v5c9.39-1.94,16.81,4.3,17,10,.15,4.36-3.9,9.2-10,11l11,15h-8l-9-12v9a9.68,9.68,0,0,1-2,6,9.57,9.57,0,0,1-2,2,13.13,13.13,0,0,1-6.81,2,9.21,9.21,0,0,1-1.19,0,26.11,26.11,0,0,1-11-3h0l4-6h0a10.32,10.32,0,0,0,7,1,4,4,0,0,0,2-1,5,5,0,0,0,1-2h0V8.5C14.72,5.11,14.72,2.34,14.71.5Zm12,10v10h0s4,.54,6-1,2.45-5.18,1-7c-1.79-2.27-7-2-7-2Z"/></g></g></svg>